<svg version="1.1" id="Layer_1" xmlns="http://www.w3.org/2000/svg" xmlns:xlink="http://www.w3.org/1999/xlink" x="0px" y="0px"
	 width="100%" viewBox="0 0 500 500" enable-background="new 0 0 500 500" xml:space="preserve">
<path fill="#000000" opacity="1.000000" stroke="none" 
	d="
M1.000000,119.000000 
	C1.000000,79.343109 1.000000,40.186226 0.999999,1.022003 
	C167.615280,1.014669 334.230560,1.014669 500.922913,1.014669 
	C500.922913,167.573624 500.922913,334.147308 500.922913,500.860474 
	C334.333405,500.860474 167.666718,500.860474 1.000000,500.860474 
	C1.000000,373.769318 1.000000,246.634659 1.000000,119.000000 
M485.999725,353.084137 
	C486.006409,256.157562 486.017792,159.230988 485.976654,62.304428 
	C485.976013,60.802444 485.328064,59.300743 485.021393,56.985336 
	C481.586395,37.482323 470.112091,23.608419 449.719482,18.226162 
	C447.882996,17.824512 446.046509,17.422865 443.760712,16.233379 
	C442.105469,16.148607 440.450226,15.989845 438.794983,15.989604 
	C314.658966,15.971533 190.522964,15.957067 66.386963,16.002363 
	C62.653584,16.003727 58.886528,16.427855 55.192730,17.016205 
	C32.934559,20.561495 16.106514,40.417301 16.067898,62.421806 
	C15.845951,188.890045 15.971222,315.358887 16.031008,441.827515 
	C16.031719,443.329895 16.723366,444.831970 16.986649,447.106476 
	C18.921501,459.831757 25.813015,469.522064 35.928719,476.947418 
	C42.081287,481.463654 48.919071,484.789764 57.270252,485.786896 
	C58.094776,485.862488 58.919300,486.004272 59.743824,486.004272 
	C186.872040,486.007080 314.000275,486.002747 441.128448,485.951752 
	C442.468048,485.951202 443.807343,485.333679 445.566040,485.009918 
	C445.566040,485.009918 445.962738,484.874054 446.520172,484.927521 
	C446.723389,484.628632 446.926575,484.329742 447.937622,483.999908 
	C452.639771,482.513672 457.885956,481.885223 461.911469,479.332123 
	C467.405365,475.847778 472.643219,471.449921 476.757874,466.432556 
	C481.660309,460.454620 485.023224,453.317963 485.783661,444.722717 
	C485.802826,414.485474 485.821991,384.248199 485.999725,353.084137 
z"/>
<path fill="#248DE8" opacity="1.000000" stroke="none" 
	d="
M445.962738,484.874054 
	C445.962738,484.874054 445.566040,485.009918 444.991516,484.961945 
	C443.928650,484.879822 443.440277,484.845673 442.581848,484.643585 
	C440.070740,484.318756 437.929962,484.030396 435.788544,484.025482 
	C416.528412,483.981171 397.268188,483.986603 378.006348,483.510193 
	C378.003174,414.094208 378.009705,345.145447 377.987091,276.196686 
	C377.984894,269.467621 378.988464,262.559570 375.439758,256.338409 
	C379.243774,256.499878 382.620605,256.739075 386.333435,257.142334 
	C402.535095,260.876434 414.126556,270.585785 424.032562,282.929993 
	C430.856415,291.433411 438.069275,299.624634 445.250946,308.255371 
	C447.867004,311.462524 450.314209,314.392517 452.818451,317.272858 
	C463.496735,329.554901 474.191895,341.822235 484.942810,354.102814 
	C485.004669,354.110718 485.039154,353.990814 485.020813,354.459412 
	C485.001801,385.004242 485.001129,415.080475 485.000427,445.156677 
	C485.023224,453.317963 481.660309,460.454620 476.757874,466.432556 
	C472.643219,471.449921 467.405365,475.847778 461.911469,479.332123 
	C457.885956,481.885223 452.639771,482.513672 447.326782,484.138489 
	C446.438232,484.442413 446.187164,484.641418 445.962738,484.874054 
z"/>
<path fill="#6EBAF7" opacity="1.000000" stroke="none" 
	d="
M445.108276,307.955353 
	C438.069275,299.624634 430.856415,291.433411 424.032562,282.929993 
	C414.126556,270.585785 402.535095,260.876434 386.488770,256.818268 
	C387.205078,253.797867 388.856201,251.272797 388.880554,248.732117 
	C389.088043,227.119446 388.945435,205.503662 389.042053,183.889420 
	C389.063507,179.091843 389.732819,174.300415 389.887482,169.499176 
	C390.011993,165.634171 389.809906,161.758621 389.805450,157.478882 
	C390.195465,148.539764 391.226501,139.960632 390.629822,131.496246 
	C390.221924,125.709099 387.544373,120.081940 386.038086,113.970413 
	C386.463409,110.932884 386.960968,108.308624 386.965973,105.683426 
	C387.021637,76.458260 387.001129,47.232948 387.469727,18.006187 
	C395.954315,17.736006 403.970428,17.467310 412.430969,17.190046 
	C415.246094,17.186743 417.616730,17.192005 420.110474,17.253746 
	C420.233582,17.310225 420.633881,17.331730 420.633881,17.331730 
	C420.633881,17.331730 421.012787,17.195948 421.480408,17.185144 
	C429.368683,17.123299 436.789337,17.072256 444.210022,17.021215 
	C446.046509,17.422865 447.882996,17.824512 449.751343,18.891438 
	C448.855530,22.789829 447.122742,26.021618 447.117432,29.256250 
	C446.970886,118.368904 446.996002,207.481842 447.021362,296.594727 
	C447.022064,299.080017 447.640930,301.596527 447.388733,304.038269 
	C447.247253,305.407867 445.907928,306.653717 445.108276,307.955353 
z"/>
<path fill="#B7DCFB" opacity="1.000000" stroke="none" 
	d="
M443.985352,16.627296 
	C436.789337,17.072256 429.368683,17.123299 421.224243,17.169617 
	C420.329437,17.175684 420.158417,17.186476 419.987366,17.197269 
	C417.616730,17.192005 415.246094,17.186743 411.967285,17.144737 
	C400.736450,17.134344 390.413757,17.160692 379.728210,17.184551 
	C378.881622,17.185400 378.397858,17.188742 377.475830,17.157112 
	C374.391571,17.148075 371.745544,17.174009 368.625000,17.184322 
	C352.408325,17.206381 336.666168,17.244059 320.754364,17.367481 
	C320.376068,17.604858 320.201538,17.788841 319.609741,18.035959 
	C316.458038,18.124733 313.757629,18.182720 310.716248,18.189054 
	C309.918854,18.090494 309.462402,18.043585 308.865662,17.836658 
	C308.525543,17.472357 308.296021,17.310135 307.566040,17.179420 
	C295.077667,17.228188 283.060028,17.287510 270.573425,17.301121 
	C258.087677,17.282690 246.070923,17.309971 233.583099,17.277855 
	C222.425674,17.252104 211.739334,17.285746 200.581818,17.261696 
	C188.429596,17.233755 176.748566,17.263506 164.594696,17.238043 
	C156.668930,17.150389 149.214218,17.007254 141.763794,17.128315 
	C137.505508,17.197506 133.254196,17.696857 128.531113,18.000292 
	C108.897827,18.001434 89.733185,18.001068 70.568542,18.009880 
	C61.858261,18.013885 60.005325,19.839483 60.004520,28.534855 
	C59.997028,109.693352 59.998474,190.851852 60.002922,272.010345 
	C60.003284,278.642029 60.022442,278.642029 66.364838,278.407104 
	C51.115955,298.004700 36.098137,317.338654 20.887108,336.519379 
	C18.131985,339.993530 16.969730,343.492676 16.989637,347.913544 
	C17.137373,380.719910 17.083231,413.527191 17.092493,446.334167 
	C16.723366,444.831970 16.031719,443.329895 16.031008,441.827515 
	C15.971222,315.358887 15.845951,188.890045 16.067898,62.421806 
	C16.106514,40.417301 32.934559,20.561495 55.192730,17.016205 
	C58.886528,16.427855 62.653584,16.003727 66.386963,16.002363 
	C190.522964,15.957067 314.658966,15.971533 438.794983,15.989604 
	C440.450226,15.989845 442.105469,16.148607 443.985352,16.627296 
z"/>
<path fill="#68B7F6" opacity="1.000000" stroke="none" 
	d="
M445.250916,308.255371 
	C445.907928,306.653717 447.247253,305.407867 447.388733,304.038269 
	C447.640930,301.596527 447.022064,299.080017 447.021362,296.594727 
	C446.996002,207.481842 446.970886,118.368904 447.117432,29.256250 
	C447.122742,26.021618 448.855530,22.789829 449.923431,19.215691 
	C470.112091,23.608419 481.586395,37.482323 484.967865,57.874847 
	C484.903198,157.207886 484.892059,255.651398 484.880920,354.094910 
	C474.191895,341.822235 463.496735,329.554901 452.818451,317.272858 
	C450.314209,314.392517 447.867004,311.462524 445.250916,308.255371 
z"/>
<path fill="#40A3F4" opacity="1.000000" stroke="none" 
	d="
M17.039570,446.720337 
	C17.083231,413.527191 17.137373,380.719910 16.989637,347.913544 
	C16.969730,343.492676 18.131985,339.993530 20.887108,336.519379 
	C36.098137,317.338654 51.115955,298.004700 66.597496,278.226746 
	C68.499512,276.050629 70.004036,274.371033 71.782799,273.015625 
	C72.704575,277.053040 73.909943,280.765228 73.916649,284.479584 
	C74.032127,348.529205 73.997910,412.579102 74.002808,476.628937 
	C74.003372,483.965179 74.020935,483.985992 81.092445,483.990387 
	C96.397835,483.999878 111.703232,483.985840 127.476746,483.983459 
	C146.631790,483.984070 165.318710,483.982666 184.473709,483.985443 
	C204.961075,483.989594 224.980377,483.989594 245.468338,483.993347 
	C264.511566,484.006439 283.086212,483.988861 301.660522,484.061981 
	C303.773102,484.070312 305.883667,484.588074 307.530884,484.935852 
	C277.598206,485.011749 248.129822,485.030609 218.661438,485.028870 
	C164.720917,485.025665 110.780403,485.010345 56.839882,485.000092 
	C48.919071,484.789764 42.081287,481.463654 35.928719,476.947418 
	C25.813015,469.522064 18.921501,459.831757 17.039570,446.720337 
z"/>
<path fill="#B7DCFB" opacity="1.000000" stroke="none" 
	d="
M57.055069,485.393494 
	C110.780403,485.010345 164.720917,485.025665 218.661438,485.028870 
	C248.129822,485.030609 277.598206,485.011749 307.997925,484.978638 
	C342.147308,484.982361 375.365356,485.030823 408.583435,485.025238 
	C420.039612,485.023315 431.495758,484.886627 442.951935,484.811523 
	C443.440277,484.845673 443.928650,484.879822 444.781891,484.959076 
	C443.807343,485.333679 442.468048,485.951202 441.128448,485.951752 
	C314.000275,486.002747 186.872040,486.007080 59.743824,486.004272 
	C58.919300,486.004272 58.094776,485.862488 57.055069,485.393494 
z"/>
<path fill="#B7DCFB" opacity="1.000000" stroke="none" 
	d="
M484.942810,354.102814 
	C484.892059,255.651398 484.903198,157.207886 484.948273,58.281639 
	C485.328064,59.300743 485.976013,60.802444 485.976654,62.304428 
	C486.017792,159.230988 486.006409,256.157562 485.719971,353.541565 
	C485.440216,353.998993 485.039154,353.990814 485.039154,353.990814 
	C485.039154,353.990814 485.004669,354.110718 484.942810,354.102814 
z"/>
<path fill="#AFD9FA" opacity="1.000000" stroke="none" 
	d="
M485.020813,354.459412 
	C485.039154,353.990814 485.440216,353.998993 485.640686,354.004974 
	C485.821991,384.248199 485.802826,414.485474 485.392029,444.939697 
	C485.001129,415.080475 485.001801,385.004242 485.020813,354.459412 
z"/>
<path fill="#2E95EC" opacity="1.000000" stroke="none" 
	d="
M446.241455,484.900787 
	C446.187164,484.641418 446.438232,484.442413 446.922882,484.153961 
	C446.926575,484.329742 446.723389,484.628632 446.241455,484.900787 
z"/>
<path fill="#2991EA" opacity="1.000000" stroke="none" 
	d="
M375.012512,256.416168 
	C378.988464,262.559570 377.984894,269.467621 377.987091,276.196686 
	C378.009705,345.145447 378.003174,414.094208 377.536865,483.516418 
	C358.250763,483.991180 339.432617,483.997437 320.614441,483.991547 
	C313.011749,483.989136 313.002075,483.977020 313.001617,476.137726 
	C312.998596,423.180420 312.965302,370.223022 313.062622,317.265900 
	C313.070862,312.784851 313.283966,308.635712 308.150146,306.674988 
	C317.436676,295.651794 326.232513,284.615173 335.776367,274.268555 
	C346.218445,262.948181 359.334900,256.653961 375.012512,256.416168 
z"/>
<path fill="#2E95EC" opacity="1.000000" stroke="none" 
	d="
M307.989105,306.965607 
	C313.283966,308.635712 313.070862,312.784851 313.062622,317.265900 
	C312.965302,370.223022 312.998596,423.180420 313.001617,476.137726 
	C313.002075,483.977020 313.011749,483.989136 320.614441,483.991547 
	C339.432617,483.997437 358.250763,483.991180 377.538452,483.983643 
	C397.268188,483.986603 416.528412,483.981171 435.788544,484.025482 
	C437.929962,484.030396 440.070740,484.318756 442.581848,484.643585 
	C431.495758,484.886627 420.039612,485.023315 408.583435,485.025238 
	C375.365356,485.030823 342.147308,484.982361 308.462219,484.912354 
	C305.883667,484.588074 303.773102,484.070312 301.660522,484.061981 
	C283.086212,483.988861 264.511566,484.006439 245.468445,483.525879 
	C244.999985,419.736481 244.977005,356.418365 245.089310,293.100433 
	C245.093552,290.712799 246.409225,288.327545 247.372208,286.151184 
	C248.921494,288.093018 250.213394,289.824066 251.502945,291.556885 
	C257.626831,299.785614 263.750000,308.014832 269.984436,316.556183 
	C274.313507,322.723938 278.531555,328.579407 283.282257,335.174255 
	C290.031372,327.164612 296.009003,320.070496 302.264557,312.802612 
	C304.358032,310.741089 306.173553,308.853333 307.989105,306.965607 
z"/>
<path fill="#7EC1F7" opacity="1.000000" stroke="none" 
	d="
M308.150146,306.674988 
	C306.173553,308.853333 304.358032,310.741089 302.117432,312.446045 
	C301.130127,308.665497 300.095123,305.069672 300.079895,301.469543 
	C299.950104,270.807037 300.006531,240.143753 300.004547,209.480713 
	C300.004272,205.349808 299.989685,201.218918 300.316376,197.186096 
	C302.410980,197.920685 304.170959,198.557159 306.219299,199.402908 
	C311.323425,200.773987 316.139221,201.935806 321.330139,203.269714 
	C332.270294,204.811584 342.511078,203.810272 352.617889,199.191376 
	C356.997955,196.841217 361.026886,194.561844 365.357239,192.113739 
	C377.779144,183.485474 385.513855,171.923187 389.752747,157.887756 
	C389.809906,161.758621 390.011993,165.634171 389.887482,169.499176 
	C389.732819,174.300415 389.063507,179.091843 389.042053,183.889420 
	C388.945435,205.503662 389.088043,227.119446 388.880554,248.732117 
	C388.856201,251.272797 387.205078,253.797867 386.152740,256.654236 
	C382.620605,256.739075 379.243774,256.499878 375.439758,256.338409 
	C359.334900,256.653961 346.218445,262.948181 335.776367,274.268555 
	C326.232513,284.615173 317.436676,295.651794 308.150146,306.674988 
z"/>
<path fill="#7EC1F7" opacity="1.000000" stroke="none" 
	d="
M320.924042,17.281738 
	C336.666168,17.244059 352.408325,17.206381 368.960693,17.339550 
	C372.485291,17.404293 375.199707,17.298189 377.914093,17.192085 
	C378.397858,17.188742 378.881622,17.185400 380.064728,17.342758 
	C382.843109,17.671532 384.922180,17.839602 387.001221,18.007673 
	C387.001129,47.232948 387.021637,76.458260 386.965973,105.683426 
	C386.960968,108.308624 386.463409,110.932884 385.808929,113.695450 
	C380.495056,105.207451 374.310120,97.676987 366.007141,91.543922 
	C361.215729,88.786736 356.639923,86.290321 351.772888,83.585999 
	C342.654358,79.822243 333.527039,78.351532 323.638306,79.408127 
	C319.509735,79.967751 315.776001,80.547310 312.020599,80.693092 
	C311.667847,77.471413 311.061462,74.684593 311.050446,71.895424 
	C310.979950,54.010803 311.040070,36.125671 311.057251,18.240705 
	C313.757629,18.182720 316.458038,18.124733 319.762268,17.925121 
	C320.563354,17.628782 320.749329,17.461529 320.924042,17.281738 
z"/>
<path fill="#248DE8" opacity="1.000000" stroke="none" 
	d="
M366.222778,91.804695 
	C374.310120,97.676987 380.495056,105.207451 385.652405,114.108284 
	C387.544373,120.081940 390.221924,125.709099 390.629822,131.496246 
	C391.226501,139.960632 390.195465,148.539764 389.805450,157.478882 
	C385.513855,171.923187 377.779144,183.485474 365.358032,191.662430 
	C365.369751,188.574997 365.946503,185.770798 365.953430,182.965164 
	C366.021576,155.330185 365.988647,127.694977 366.005310,100.059845 
	C366.006958,97.308083 366.147003,94.556412 366.222778,91.804695 
z"/>
<path fill="#89C6F8" opacity="1.000000" stroke="none" 
	d="
M387.469727,18.006187 
	C384.922180,17.839602 382.843109,17.671532 380.427551,17.345251 
	C390.413757,17.160692 400.736450,17.134344 411.522827,17.153305 
	C403.970428,17.467310 395.954315,17.736006 387.469727,18.006187 
z"/>
<path fill="#89C6F8" opacity="1.000000" stroke="none" 
	d="
M420.110474,17.253746 
	C420.158417,17.186476 420.329437,17.175684 420.756622,17.180420 
	C421.012787,17.195948 420.633881,17.331730 420.633881,17.331730 
	C420.633881,17.331730 420.233582,17.310225 420.110474,17.253746 
z"/>
<path fill="#AFD9FA" opacity="1.000000" stroke="none" 
	d="
M71.508560,272.691437 
	C70.004036,274.371033 68.499512,276.050629 66.762344,277.910583 
	C60.022442,278.642029 60.003284,278.642029 60.002922,272.010345 
	C59.998474,190.851852 59.997028,109.693352 60.004520,28.534855 
	C60.005325,19.839483 61.858261,18.013885 70.568542,18.009880 
	C89.733185,18.001068 108.897827,18.001434 128.529419,18.468628 
	C128.995544,77.921051 129.058197,136.903076 128.904953,195.884537 
	C128.887848,202.466278 127.643852,209.044815 126.662247,215.809235 
	C124.321655,217.233307 122.287651,218.473007 119.951347,219.780319 
	C113.842262,224.538879 107.205025,228.511215 102.397568,234.066895 
	C91.618279,246.523834 81.748611,259.767883 71.508560,272.691437 
z"/>
<path fill="#8FC9F8" opacity="1.000000" stroke="none" 
	d="
M269.873444,316.243896 
	C263.750000,308.014832 257.626831,299.785614 251.502945,291.556885 
	C250.213394,289.824066 248.921494,288.093018 247.237000,285.837891 
	C242.564941,279.193085 238.286530,273.071533 234.152466,266.597900 
	C234.199112,263.129028 234.016144,260.012238 234.016190,256.895447 
	C234.017212,177.042709 234.037354,97.189980 234.054184,17.337250 
	C246.070923,17.309971 258.087677,17.282690 270.562897,17.736050 
	C271.014343,45.995735 270.906921,73.775612 271.136200,101.552704 
	C271.162750,104.770279 273.058350,107.972427 273.996704,111.519348 
	C264.659851,130.648392 264.685394,149.680328 272.114441,169.144684 
	C270.870575,171.558945 269.132690,173.737946 269.124634,175.923309 
	C268.965942,219.129440 268.987488,262.336365 269.046295,305.542999 
	C269.051147,309.110352 269.585236,312.676941 269.873444,316.243896 
z"/>
<path fill="#96CDF9" opacity="1.000000" stroke="none" 
	d="
M233.583099,17.277855 
	C234.037354,97.189980 234.017212,177.042709 234.016190,256.895447 
	C234.016144,260.012238 234.199112,263.129028 233.902191,266.381958 
	C223.005112,253.363480 212.502655,240.208832 201.984665,226.625000 
	C201.647247,223.389587 201.045929,220.583527 201.044403,217.777130 
	C201.008240,150.957886 201.036484,84.138641 201.052994,17.319387 
	C211.739334,17.285746 222.425674,17.252104 233.583099,17.277855 
z"/>
<path fill="#9CCFF9" opacity="1.000000" stroke="none" 
	d="
M200.581818,17.261696 
	C201.036484,84.138641 201.008240,150.957886 201.044403,217.777130 
	C201.045929,220.583527 201.647247,223.389587 201.682968,226.469421 
	C194.633133,222.803757 187.869476,218.864502 180.819305,214.701889 
	C174.683914,212.915024 168.835022,211.351501 163.103012,209.433960 
	C163.813217,206.034409 164.918152,202.989914 164.924362,199.943192 
	C165.048050,139.060028 165.044983,78.176620 165.067520,17.293259 
	C176.748566,17.263506 188.429596,17.233755 200.581818,17.261696 
z"/>
<path fill="#A3D3FA" opacity="1.000000" stroke="none" 
	d="
M164.594696,17.238043 
	C165.044983,78.176620 165.048050,139.060028 164.924362,199.943192 
	C164.918152,202.989914 163.813217,206.034409 162.636169,209.453156 
	C149.887741,208.914352 138.180389,210.769714 126.968826,215.624847 
	C127.643852,209.044815 128.887848,202.466278 128.904953,195.884537 
	C129.058197,136.903076 128.995544,77.921051 128.998062,18.470863 
	C133.254196,17.696857 137.505508,17.197506 141.763794,17.128315 
	C149.214218,17.007254 156.668930,17.150389 164.594696,17.238043 
z"/>
<path fill="#89C6F8" opacity="1.000000" stroke="none" 
	d="
M274.087402,111.181725 
	C273.058350,107.972427 271.162750,104.770279 271.136200,101.552704 
	C270.906921,73.775612 271.014343,45.995735 271.031921,17.781761 
	C283.060028,17.287510 295.077667,17.228188 307.716736,17.324272 
	C308.547333,17.669403 308.769928,17.841736 309.005981,17.996675 
	C309.462402,18.043585 309.918854,18.090494 310.716248,18.189054 
	C311.040070,36.125671 310.979950,54.010803 311.050446,71.895424 
	C311.061462,74.684593 311.667847,77.471413 311.756958,80.872482 
	C310.345856,82.014091 309.176758,82.542534 307.651184,83.119865 
	C301.057526,87.022240 294.820251,90.875725 288.294373,94.870682 
	C283.366302,100.402016 278.726837,105.791870 274.087402,111.181725 
z"/>
<path fill="#89C6F8" opacity="1.000000" stroke="none" 
	d="
M377.475830,17.157114 
	C375.199707,17.298189 372.485291,17.404293 369.435211,17.355171 
	C371.745544,17.174009 374.391571,17.148075 377.475830,17.157114 
z"/>
<path fill="#89C6F8" opacity="1.000000" stroke="none" 
	d="
M320.754364,17.367481 
	C320.749329,17.461529 320.563354,17.628782 320.213623,17.894333 
	C320.201538,17.788841 320.376068,17.604858 320.754364,17.367481 
z"/>
<path fill="#96CDF9" opacity="1.000000" stroke="none" 
	d="
M308.865662,17.836658 
	C308.769928,17.841736 308.547333,17.669403 308.187500,17.334827 
	C308.296021,17.310135 308.525543,17.472357 308.865662,17.836658 
z"/>
<path fill="#379CF0" opacity="1.000000" stroke="none" 
	d="
M126.662239,215.809235 
	C138.180389,210.769714 149.887741,208.914352 162.519318,209.807175 
	C168.835022,211.351501 174.683914,212.915024 180.661438,214.970413 
	C186.704834,228.434219 183.807892,242.176804 183.859177,255.542633 
	C184.151382,331.687897 184.003769,407.834869 184.005646,483.981262 
	C165.318710,483.982666 146.631790,483.984070 127.474304,483.516907 
	C127.002319,397.841827 127.003448,312.635315 126.994583,227.428833 
	C126.993866,220.544739 126.938469,220.517792 120.253647,219.712708 
	C122.287651,218.473007 124.321655,217.233307 126.662239,215.809235 
z"/>
<path fill="#3399EE" opacity="1.000000" stroke="none" 
	d="
M184.473709,483.985443 
	C184.003769,407.834869 184.151382,331.687897 183.859177,255.542633 
	C183.807892,242.176804 186.704834,228.434219 180.947968,215.193756 
	C187.869476,218.864502 194.633133,222.803757 201.698502,226.898590 
	C212.502655,240.208832 223.005112,253.363480 233.757843,266.734070 
	C238.286530,273.071533 242.564941,279.193085 246.978546,285.627899 
	C246.409225,288.327545 245.093552,290.712799 245.089310,293.100433 
	C244.977005,356.418365 244.999985,419.736481 244.999786,483.522095 
	C224.980377,483.989594 204.961075,483.989594 184.473709,483.985443 
z"/>
<path fill="#3BA0F2" opacity="1.000000" stroke="none" 
	d="
M119.951347,219.780319 
	C126.938469,220.517792 126.993866,220.544739 126.994583,227.428833 
	C127.003448,312.635315 127.002319,397.841827 127.006195,483.514893 
	C111.703232,483.985840 96.397835,483.999878 81.092445,483.990387 
	C74.020935,483.985992 74.003372,483.965179 74.002808,476.628937 
	C73.997910,412.579102 74.032127,348.529205 73.916649,284.479584 
	C73.909943,280.765228 72.704575,277.053040 71.782806,273.015625 
	C81.748611,259.767883 91.618279,246.523834 102.397568,234.066895 
	C107.205025,228.511215 113.842262,224.538879 119.951347,219.780319 
z"/>
<path fill="#89C6F8" opacity="1.000000" stroke="none" 
	d="
M269.984436,316.556183 
	C269.585236,312.676941 269.051147,309.110352 269.046295,305.542999 
	C268.987488,262.336365 268.965942,219.129440 269.124634,175.923309 
	C269.132690,173.737946 270.870575,171.558945 272.331909,169.370972 
	C278.230286,175.928085 283.599762,182.491226 289.187439,189.304962 
	C292.931000,192.066391 296.456390,194.577194 299.981750,197.088013 
	C299.989685,201.218918 300.004272,205.349808 300.004547,209.480713 
	C300.006531,240.143753 299.950104,270.807037 300.079895,301.469543 
	C300.095123,305.069672 301.130127,308.665497 301.839539,312.619873 
	C296.009003,320.070496 290.031372,327.164612 283.282257,335.174255 
	C278.531555,328.579407 274.313507,322.723938 269.984436,316.556183 
z"/>
<path fill="#2E95EC" opacity="1.000000" stroke="none" 
	d="
M324.033142,79.428055 
	C333.527039,78.351532 342.654358,79.822243 351.757507,84.072678 
	C352.021393,119.521805 352.001831,154.276352 352.009338,189.030884 
	C352.010071,192.441315 352.176971,195.851730 352.266754,199.262146 
	C342.511078,203.810272 332.270294,204.811584 321.426239,202.884247 
	C321.765228,198.763718 322.905609,195.202866 322.920013,191.637466 
	C323.056488,157.862915 322.970276,124.087486 323.046844,90.312531 
	C323.055084,86.683655 323.689301,83.056183 324.033142,79.428055 
z"/>
<path fill="#379CF0" opacity="1.000000" stroke="none" 
	d="
M300.316376,197.186096 
	C296.456390,194.577194 292.931000,192.066391 289.282318,188.923492 
	C289.770905,185.556519 290.900055,182.824280 290.914307,180.086258 
	C291.048706,154.271347 291.062592,128.454971 290.886780,102.640556 
	C290.868774,99.998329 289.386078,97.366081 288.583008,94.729210 
	C294.820251,90.875725 301.057526,87.022240 307.649658,83.582382 
	C308.003448,118.534195 308.067413,153.072662 307.910309,187.610138 
	C307.892700,191.474228 306.621033,195.332611 305.930939,199.193649 
	C304.170959,198.557159 302.410980,197.920685 300.316376,197.186096 
z"/>
<path fill="#3399EE" opacity="1.000000" stroke="none" 
	d="
M306.219299,199.402908 
	C306.621033,195.332611 307.892700,191.474228 307.910309,187.610138 
	C308.067413,153.072662 308.003448,118.534195 308.006104,83.533493 
	C309.176758,82.542534 310.345856,82.014091 311.778625,81.306259 
	C315.776001,80.547310 319.509735,79.967751 323.638306,79.408127 
	C323.689301,83.056183 323.055084,86.683655 323.046844,90.312531 
	C322.970276,124.087486 323.056488,157.862915 322.920013,191.637466 
	C322.905609,195.202866 321.765228,198.763718 321.051086,202.712158 
	C316.139221,201.935806 311.323425,200.773987 306.219299,199.402908 
z"/>
<path fill="#2991EA" opacity="1.000000" stroke="none" 
	d="
M352.617889,199.191376 
	C352.176971,195.851730 352.010071,192.441315 352.009338,189.030884 
	C352.001831,154.276352 352.021393,119.521805 352.048767,84.280586 
	C356.639923,86.290321 361.215729,88.786736 366.007141,91.543922 
	C366.147003,94.556412 366.006958,97.308083 366.005310,100.059845 
	C365.988647,127.694977 366.021576,155.330185 365.953430,182.965164 
	C365.946503,185.770798 365.369751,188.574997 365.056641,191.831177 
	C361.026886,194.561844 356.997955,196.841217 352.617889,199.191376 
z"/>
<path fill="#40A3F4" opacity="1.000000" stroke="none" 
	d="
M288.294373,94.870682 
	C289.386078,97.366081 290.868774,99.998329 290.886780,102.640556 
	C291.062592,128.454971 291.048706,154.271347 290.914307,180.086258 
	C290.900055,182.824280 289.770905,185.556519 289.064148,188.672882 
	C283.599762,182.491226 278.230286,175.928085 272.643311,169.138672 
	C264.685394,149.680328 264.659851,130.648392 273.996704,111.519348 
	C278.726837,105.791870 283.366302,100.402016 288.294373,94.870682 
z"/>
</svg>