<svg version="1.1" id="Layer_1" xmlns="http://www.w3.org/2000/svg" xmlns:xlink="http://www.w3.org/1999/xlink" x="0px" y="0px"
	 width="24px" height="24px" viewBox="0 0 512 512" enable-background="new 0 0 512 512" xml:space="preserve">
<path fill="#000000" opacity="1.000000" stroke="none" 
	d="
M513.000000,177.000000 
	C513.000000,289.306030 513.000000,401.112061 513.000000,512.959045 
	C342.402283,512.959045 171.804581,512.959045 1.103429,512.959045 
	C1.103429,342.444000 1.103429,171.887909 1.103429,1.165914 
	C171.666534,1.165914 342.333252,1.165914 513.000000,1.165914 
	C513.000000,59.528721 513.000000,118.014359 513.000000,177.000000 
M465.660065,19.206841 
	C453.951904,15.389664 441.909454,17.413872 429.069977,17.021635 
	C404.710541,17.070347 380.351074,17.119059 355.064514,17.028584 
	C329.041870,17.074707 303.019196,17.120831 276.069702,17.021248 
	C262.712158,17.069675 249.354630,17.118101 235.070251,17.020231 
	C223.045914,17.069099 211.021561,17.117968 198.070496,17.019566 
	C176.377258,17.068453 154.684036,17.117340 132.064163,17.024158 
	C109.041496,17.071548 86.018837,17.118938 62.114563,17.019085 
	C52.118359,16.660326 43.241703,20.137115 35.687790,26.202530 
	C24.493040,35.191353 17.010754,46.552151 17.007162,61.590927 
	C16.984699,155.636002 16.994743,249.681091 17.003147,343.726166 
	C17.003326,345.719574 17.112898,347.713013 17.016291,350.669647 
	C17.008152,383.294373 17.198042,415.921021 16.881882,448.542755 
	C16.774704,459.601746 19.279381,469.623901 26.064543,478.187256 
	C34.218781,488.478485 44.609829,496.254791 58.085873,496.804932 
	C76.359299,497.550934 94.690132,496.890533 113.923950,496.980469 
	C136.947922,496.931305 159.971878,496.882141 183.923538,496.979736 
	C208.280930,496.930969 232.638336,496.882233 257.923584,496.979523 
	C281.614807,496.930878 305.306000,496.882263 329.924988,496.978363 
	C348.615875,496.930298 367.306793,496.882233 386.925568,496.977814 
	C407.409393,496.984039 427.898010,496.726776 448.375092,497.102020 
	C459.448364,497.304993 469.429413,494.727081 478.107086,487.982147 
	C488.550476,479.864868 496.489166,469.407318 496.782074,455.997467 
	C497.465546,424.708130 496.905670,393.391632 496.978394,361.134399 
	C496.984772,261.881531 496.809143,162.627991 497.164032,63.376366 
	C497.228516,45.335835 483.478760,25.009315 465.660065,19.206841 
z"/>
<path fill="#248DE8" opacity="1.000000" stroke="none" 
	d="
M496.849457,362.086151 
	C496.905670,393.391632 497.465546,424.708130 496.782074,455.997467 
	C496.489166,469.407318 488.550476,479.864868 478.107086,487.982147 
	C469.429413,494.727081 459.448364,497.304993 448.375092,497.102020 
	C427.898010,496.726776 407.409393,496.984039 386.462158,496.447876 
	C386.012939,418.118835 386.027100,340.319702 386.431519,262.493896 
	C402.147156,263.216827 415.008301,269.446655 426.086365,280.325378 
	C429.601379,284.524017 432.902863,288.468597 436.277863,292.349213 
	C445.173279,302.577209 454.100586,312.777466 463.168152,323.286011 
	C466.287262,327.137207 469.182159,330.753601 472.233398,334.232941 
	C480.402954,343.548706 488.639526,352.805756 496.849457,362.086151 
z"/>
<path fill="#3DA1F3" opacity="1.000000" stroke="none" 
	d="
M112.996346,496.833435 
	C94.690132,496.890533 76.359299,497.550934 58.085873,496.804932 
	C44.609829,496.254791 34.218781,488.478485 26.064543,478.187256 
	C19.279381,469.623901 16.774704,459.601746 16.881882,448.542755 
	C17.198042,415.921021 17.008152,383.294373 17.335917,349.998962 
	C32.792568,329.948578 47.929596,310.568909 63.346046,290.996033 
	C72.767807,279.205597 81.631058,267.373230 91.141205,256.085907 
	C98.689911,247.126572 107.030563,238.834518 115.005478,230.645416 
	C114.327568,239.479065 113.102707,247.912445 113.087196,256.348053 
	C112.939735,336.509613 112.997566,416.671600 112.996346,496.833435 
z"/>
<path fill="#389DF1" opacity="1.000000" stroke="none" 
	d="
M113.460144,496.906952 
	C112.997566,416.671600 112.939735,336.509613 113.087196,256.348053 
	C113.102707,247.912445 114.327568,239.479065 115.249634,230.396088 
	C120.994659,226.447540 126.481400,223.147552 132.329315,219.784119 
	C149.380463,213.526520 166.138641,212.395828 183.001282,219.508881 
	C182.999268,312.260895 182.997559,404.546936 182.995850,496.832977 
	C159.971878,496.882141 136.947922,496.931305 113.460144,496.906952 
z"/>
<path fill="#3399EE" opacity="1.000000" stroke="none" 
	d="
M183.459686,496.906372 
	C182.997559,404.546936 182.999268,312.260895 183.363403,219.551117 
	C188.095444,221.128204 192.465057,223.129044 197.049622,225.387512 
	C204.860947,232.775558 212.811539,239.572800 219.935577,247.147415 
	C225.134476,252.675156 229.244461,259.227051 233.943680,265.640320 
	C235.067001,267.464905 236.052246,268.996094 237.111465,270.474304 
	C245.112457,281.639893 253.127960,292.795105 260.751648,304.003662 
	C256.010773,305.297943 257.044098,308.961670 257.041412,311.928467 
	C256.985504,373.563446 256.997314,435.198456 256.995728,496.833466 
	C232.638336,496.882233 208.280930,496.930969 183.459686,496.906372 
z"/>
<path fill="#AFD8FA" opacity="1.000000" stroke="none" 
	d="
M131.968140,219.847565 
	C126.481400,223.147552 120.994659,226.447540 115.263756,229.996857 
	C107.030563,238.834518 98.689911,247.126572 91.141205,256.085907 
	C81.631058,267.373230 72.767807,279.205597 63.329308,290.512146 
	C63.020824,199.203064 63.008495,108.184700 62.996170,17.166330 
	C86.018837,17.118938 109.041496,17.071548 132.529541,17.553387 
	C132.996613,81.373184 133.016830,144.663757 132.955765,207.954269 
	C132.951950,211.919022 132.312103,215.883148 131.968140,219.847565 
z"/>
<path fill="#73BCF7" opacity="1.000000" stroke="none" 
	d="
M425.906342,280.042145 
	C415.008301,269.446655 402.147156,263.216827 386.004639,262.391174 
	C373.453918,262.238098 363.029785,266.402496 353.115723,271.776978 
	C353.410919,268.535339 353.945007,265.734497 353.959839,262.930878 
	C354.042603,247.290512 354.098297,231.648270 353.910217,216.009720 
	C353.875671,213.137878 352.677277,210.279999 352.318085,207.280945 
	C359.108002,204.118408 365.595917,201.090607 372.366455,197.882294 
	C391.753235,184.537964 401.514923,166.282410 400.886749,143.160156 
	C400.292419,121.284706 390.508026,104.048401 371.843384,91.693665 
	C366.073090,88.713036 360.535919,85.978882 355.074280,82.818718 
	C355.432770,79.762505 355.951569,77.133148 355.960907,74.501976 
	C356.028778,55.390781 355.993988,36.279221 355.991638,17.167772 
	C380.351074,17.119059 404.710541,17.070347 429.534149,17.552008 
	C429.998871,102.655510 429.999481,187.228638 429.999512,271.801758 
	C429.999512,273.133606 429.923706,274.469482 430.002197,275.796448 
	C430.175873,278.732635 428.875458,280.173920 425.906342,280.042145 
z"/>
<path fill="#B7DCFB" opacity="1.000000" stroke="none" 
	d="
M62.555367,17.092709 
	C63.008495,108.184700 63.020824,199.203064 63.049889,290.705322 
	C47.929596,310.568909 32.792568,329.948578 17.413490,349.517334 
	C17.112898,347.713013 17.003326,345.719574 17.003147,343.726166 
	C16.994743,249.681091 16.984699,155.636002 17.007162,61.590927 
	C17.010754,46.552151 24.493040,35.191353 35.687790,26.202530 
	C43.241703,20.137115 52.118359,16.660326 62.555367,17.092709 
z"/>
<path fill="#9DD0F9" opacity="1.000000" stroke="none" 
	d="
M132.329315,219.784119 
	C132.312103,215.883148 132.951950,211.919022 132.955765,207.954269 
	C133.016830,144.663757 132.996613,81.373184 132.992859,17.624422 
	C154.684036,17.117340 176.377258,17.068453 198.534454,17.551350 
	C198.998917,84.135300 199.027451,150.187500 198.908142,216.239456 
	C198.902786,219.204178 197.556396,222.166458 196.834656,225.129883 
	C192.465057,223.129044 188.095444,221.128204 183.363708,219.085144 
	C166.138641,212.395828 149.380463,213.526520 132.329315,219.784119 
z"/>
<path fill="#2890EA" opacity="1.000000" stroke="none" 
	d="
M353.114868,272.216492 
	C363.029785,266.402496 373.453918,262.238098 385.614380,262.417847 
	C386.027100,340.319702 386.012939,418.118835 385.998230,496.376038 
	C367.306793,496.882233 348.615875,496.930298 329.461670,496.447937 
	C328.998871,432.953796 329.014648,369.990082 328.941101,307.026459 
	C328.938324,304.649933 328.069763,302.274414 327.766510,299.586761 
	C336.323853,290.255554 344.719360,281.236023 353.114868,272.216492 
z"/>
<path fill="#2D94EC" opacity="1.000000" stroke="none" 
	d="
M327.604675,299.898407 
	C328.069763,302.274414 328.938324,304.649933 328.941101,307.026459 
	C329.014648,369.990082 328.998871,432.953796 328.997803,496.375549 
	C305.306000,496.882263 281.614807,496.930878 257.459656,496.906494 
	C256.997314,435.198456 256.985504,373.563446 257.041412,311.928467 
	C257.044098,308.961670 256.010773,305.297943 261.012207,304.206116 
	C265.664673,309.645416 269.669281,314.932373 273.809875,320.534058 
	C279.208710,328.183105 284.471497,335.517395 289.947144,343.148346 
	C291.186798,341.779846 291.747528,341.182892 292.284271,340.565063 
	C304.059326,327.010895 315.831757,313.454437 327.604675,299.898407 
z"/>
<path fill="#90CAF9" opacity="1.000000" stroke="none" 
	d="
M273.673889,320.219330 
	C269.669281,314.932373 265.664673,309.645416 261.399506,304.156006 
	C253.127960,292.795105 245.112457,281.639893 237.111465,270.474304 
	C236.052246,268.996094 235.067001,267.464905 234.124817,265.265564 
	C234.801407,261.354828 235.920029,258.137421 235.923935,254.918655 
	C236.020081,175.668030 235.998047,96.417267 235.997101,17.166527 
	C249.354630,17.118101 262.712158,17.069675 276.533844,17.552229 
	C276.998779,48.811073 276.955811,79.539124 277.090363,110.266403 
	C277.100220,112.517776 278.393402,114.763527 279.008484,117.373917 
	C271.586761,134.231735 271.242615,150.998993 276.787781,168.299576 
	C276.399200,174.188965 276.032959,179.780655 276.026550,185.372772 
	C275.977997,227.770889 276.040131,270.169220 275.900421,312.566956 
	C275.891998,315.120178 274.449219,317.668640 273.673889,320.219330 
z"/>
<path fill="#6DB9F7" opacity="1.000000" stroke="none" 
	d="
M426.086365,280.325378 
	C428.875458,280.173920 430.175873,278.732635 430.002197,275.796448 
	C429.923706,274.469482 429.999512,273.133606 429.999512,271.801758 
	C429.999481,187.228638 429.998871,102.655510 429.997681,17.624222 
	C441.909454,17.413872 453.951904,15.389664 465.832947,19.978947 
	C465.670593,25.721104 465.045959,30.690973 465.042847,35.661232 
	C464.984558,128.826035 465.016144,221.990921 464.916779,315.155670 
	C464.914001,317.767365 463.676819,320.377747 463.015228,322.988739 
	C454.100586,312.777466 445.173279,302.577209 436.277863,292.349213 
	C432.902863,288.468597 429.601379,284.524017 426.086365,280.325378 
z"/>
<path fill="#67B6F6" opacity="1.000000" stroke="none" 
	d="
M463.168152,323.286011 
	C463.676819,320.377747 464.914001,317.767365 464.916779,315.155670 
	C465.016144,221.990921 464.984558,128.826035 465.042847,35.661232 
	C465.045959,30.690973 465.670593,25.721104 466.024841,20.317402 
	C483.478760,25.009315 497.228516,45.335835 497.164032,63.376366 
	C496.809143,162.627991 496.984772,261.881531 496.913940,361.610291 
	C488.639526,352.805756 480.402954,343.548706 472.233398,334.232941 
	C469.182159,330.753601 466.287262,327.137207 463.168152,323.286011 
z"/>
<path fill="#97CDF9" opacity="1.000000" stroke="none" 
	d="
M235.533676,17.093380 
	C235.998047,96.417267 236.020081,175.668030 235.923935,254.918655 
	C235.920029,258.137421 234.801407,261.354828 234.020996,264.947632 
	C229.244461,259.227051 225.134476,252.675156 219.935577,247.147415 
	C212.811539,239.572800 204.860947,232.775558 197.049622,225.387512 
	C197.556396,222.166458 198.902786,219.204178 198.908142,216.239456 
	C199.027451,150.187500 198.998917,84.135300 198.997818,17.624985 
	C211.021561,17.117968 223.045914,17.069099 235.533676,17.093380 
z"/>
<path fill="#88C6F8" opacity="1.000000" stroke="none" 
	d="
M279.089935,117.011887 
	C278.393402,114.763527 277.100220,112.517776 277.090363,110.266403 
	C276.955811,79.539124 276.998779,48.811073 276.997253,17.625082 
	C303.019196,17.120831 329.041870,17.074707 355.528076,17.098179 
	C355.993988,36.279221 356.028778,55.390781 355.960907,74.501976 
	C355.951569,77.133148 355.432770,79.762505 354.692200,82.765472 
	C352.495667,82.821182 350.756744,82.504112 348.598999,82.094101 
	C341.120178,82.007477 334.060181,82.013779 326.594055,82.006454 
	C319.123474,84.655045 312.058960,87.317238 304.670013,90.097954 
	C302.781586,91.153503 301.171478,92.022026 299.661255,93.038841 
	C290.604828,99.136223 284.668213,107.922836 279.089935,117.011887 
z"/>
<path fill="#88C6F8" opacity="1.000000" stroke="none" 
	d="
M273.809875,320.534058 
	C274.449219,317.668640 275.891998,315.120178 275.900421,312.566956 
	C276.040131,270.169220 275.977997,227.770889 276.026550,185.372772 
	C276.032959,179.780655 276.399200,174.188965 277.010315,168.565994 
	C283.258972,181.361755 291.069916,192.490921 304.119690,199.545135 
	C311.898193,202.512604 319.449219,205.244568 327.403687,208.085388 
	C334.877167,208.066559 341.947235,207.938904 349.395264,207.811340 
	C350.520874,207.679535 351.268463,207.547607 352.016083,207.415680 
	C352.677277,210.279999 353.875671,213.137878 353.910217,216.009720 
	C354.098297,231.648270 354.042603,247.290512 353.959839,262.930878 
	C353.945007,265.734497 353.410919,268.535339 353.115723,271.776978 
	C344.719360,281.236023 336.323853,290.255554 327.766479,299.586761 
	C315.831757,313.454437 304.059326,327.010895 292.284271,340.565063 
	C291.747528,341.182892 291.186798,341.779846 289.947144,343.148346 
	C284.471497,335.517395 279.208710,328.183105 273.809875,320.534058 
z"/>
<path fill="#2890EA" opacity="1.000000" stroke="none" 
	d="
M352.318085,207.280960 
	C351.268463,207.547607 350.520874,207.679535 349.298004,207.420837 
	C348.548157,204.736313 348.037445,202.442703 348.034302,200.148407 
	C347.984222,163.446091 347.978180,126.743645 348.042816,90.041374 
	C348.047424,87.422699 348.678192,84.805122 349.017792,82.187035 
	C350.756744,82.504112 352.495667,82.821182 354.616699,83.191498 
	C360.535919,85.978882 366.073090,88.713036 371.613037,92.046181 
	C371.411682,93.944328 371.030731,95.243286 371.029388,96.542641 
	C370.996124,128.797638 370.987610,161.052704 371.048645,193.307602 
	C371.051636,194.893311 371.723480,196.477753 372.083862,198.062790 
	C365.595917,201.090607 359.108002,204.118408 352.318085,207.280960 
z"/>
<path fill="#248DE8" opacity="1.000000" stroke="none" 
	d="
M372.366455,197.882294 
	C371.723480,196.477753 371.051636,194.893311 371.048645,193.307602 
	C370.987610,161.052704 370.996124,128.797638 371.029388,96.542641 
	C371.030731,95.243286 371.411682,93.944328 371.846161,92.292664 
	C390.508026,104.048401 400.292419,121.284706 400.886749,143.160156 
	C401.514923,166.282410 391.753235,184.537964 372.366455,197.882294 
z"/>
<path fill="#3DA1F3" opacity="1.000000" stroke="none" 
	d="
M303.892212,199.309631 
	C291.069916,192.490921 283.258972,181.361755 277.199249,168.268494 
	C271.242615,150.998993 271.586761,134.231735 279.008484,117.373917 
	C284.668213,107.922836 290.604828,99.136223 299.661255,93.038841 
	C301.171478,92.022026 302.781586,91.153503 304.637512,90.519409 
	C304.619232,94.113205 304.049164,97.403267 304.038940,100.695045 
	C303.937195,133.566422 303.927734,166.438065 303.892212,199.309631 
z"/>
<path fill="#3399EE" opacity="1.000000" stroke="none" 
	d="
M348.598999,82.094101 
	C348.678192,84.805122 348.047424,87.422699 348.042816,90.041374 
	C347.978180,126.743645 347.984222,163.446091 348.034302,200.148407 
	C348.037445,202.442703 348.548157,204.736313 348.920044,207.420746 
	C341.947235,207.938904 334.877167,208.066559 327.316406,207.678986 
	C326.549683,204.696732 326.036713,202.230026 326.033234,199.762619 
	C325.981598,163.308960 325.975708,126.855179 326.040894,90.401566 
	C326.045898,87.607170 326.665985,84.813881 327.000183,82.020073 
	C334.060181,82.013779 341.120178,82.007477 348.598999,82.094101 
z"/>
<path fill="#389DF1" opacity="1.000000" stroke="none" 
	d="
M326.594055,82.006454 
	C326.665985,84.813881 326.045898,87.607170 326.040894,90.401566 
	C325.975708,126.855179 325.981598,163.308960 326.033234,199.762619 
	C326.036713,202.230026 326.549683,204.696732 326.912964,207.570160 
	C319.449219,205.244568 311.898193,202.512604 304.119690,199.545135 
	C303.927734,166.438065 303.937195,133.566422 304.038940,100.695045 
	C304.049164,97.403267 304.619232,94.113205 304.961975,90.400887 
	C312.058960,87.317238 319.123474,84.655045 326.594055,82.006454 
z"/>
</svg>